<svg xmlns="http://www.w3.org/2000/svg" viewBox="100 2 134 165" xml:space="preserve">
<path fill="#274653" d="M217.24,165.205H116.871c-8.076,0-14.646-6.57-14.646-14.646V18.929c0-8.075,6.57-14.646,14.646-14.646  H217.24c8.076,0,14.646,6.57,14.646,14.646v131.63C231.886,158.635,225.316,165.205,217.24,165.205z M116.871,7.283  c-6.422,0-11.646,5.225-11.646,11.646v131.63c0,6.422,5.225,11.646,11.646,11.646H217.24c6.422,0,11.646-5.225,11.646-11.646V18.929  c0-6.421-5.225-11.646-11.646-11.646H116.871z"/>
<g>
	<g>
		<path fill="#2C9E8F" d="M123.097,108.73c-1.396-0.025-2.55-1.113-2.631-2.524c-0.085-1.452,1.043-2.702,2.515-2.775    c11.4-0.599,23.811-5.673,30.846-12.626c7.322-7.231,10.758-16.142,10.831-28.051c0.015-1.471,1.212-2.655,2.673-2.636    c1.464,0.01,2.646,1.203,2.643,2.66c-0.094,13.417-4.045,23.523-12.425,31.803c-8.014,7.922-21.485,13.473-34.3,14.148    C123.199,108.729,123.147,108.724,123.097,108.73z"/>
	</g>
	<g>
		<path fill="#2C9E8F" d="M123.018,120.663c-1.38-0.005-2.536-1.087-2.627-2.47c-0.096-1.477,1.01-2.736,2.477-2.835    c47.17-3.128,52.478-37.67,52.562-52.375c0.044-5.729-4.085-8.316-8.194-8.345c-3.721-0.028-7.505,2.206-7.538,7.244    c-0.174,27.04-20.23,36.509-37.357,36.403c-1.469-0.015-2.648-1.214-2.64-2.674c0.005-1.462,1.21-2.646,2.669-2.647    c5.313,0.041,31.836-1.289,32.028-31.117c0.056-8.268,6.518-12.563,12.877-12.511c6.731,0.031,13.528,4.752,13.468,13.683    c-0.084,12.631-4.473,54.119-57.537,57.633C123.145,120.651,123.083,120.666,123.018,120.663z"/>
	</g>
	<g>
		<path fill="#274653" d="M211.434,110.448c-0.136,0.007-0.278-0.011-0.417-0.028c-25.911-4.291-25.417-22.882-24.937-40.885    c0.074-2.683,0.151-5.443,0.142-8.206c-0.016-11.907-10.069-18.168-20.026-18.233c-0.029-0.005-0.057,0.004-0.081-0.01    c-8.961-0.016-18.017,5.092-18.1,16.568c-0.163,28.008-17.993,27.884-25.602,27.843c-1.478-0.003-2.657-1.199-2.647-2.66    c0.008-1.469,1.208-2.65,2.673-2.642c8.016,0.053,20.14,0.129,20.289-22.572c0.08-15.046,12.196-21.866,23.393-21.831    c0.034,0,0.073-0.001,0.118,0.004c12.564,0.07,25.268,8.164,25.29,23.521c-0.008,2.82-0.083,5.622-0.151,8.374    c-0.494,18.559-0.85,31.957,20.505,35.49c1.44,0.24,2.419,1.602,2.185,3.047C213.842,109.534,212.711,110.46,211.434,110.448z"/>
	</g>
	<g>
		<path fill="#E77051" d="M211.505,98.682c-11.372-0.077-14.427-8.162-14.453-12.44l0.177-28.206    c0.067-9.072-11.248-25.812-29.888-25.934c-16.409-0.111-30.363,11.647-30.454,25.656c-0.096,16.415-6.984,18.635-14.405,18.589    c-1.478-0.003-2.651-1.191-2.643-2.665c0.004-1.462,1.214-2.646,2.669-2.633c4.426,0.021,8.989,0.057,9.077-13.329    c0.104-16.881,16.503-31.044,35.798-30.929c21.25,0.136,35.242,18.918,35.162,31.279l-0.188,28.179    c0.037,1.137,0.603,7.08,9.19,7.131c1.455,0.003,2.636,1.209,2.626,2.669C214.164,97.512,212.976,98.687,211.505,98.682z"/>
	</g>
	<g>
		<path fill="#E77051" d="M211.586,87.489c-1.466-0.008-2.657-1.2-2.645-2.658l0.163-24.449c0.001-0.219,0.249-16.805-10.901-28.304    c-7.174-7.38-17.534-11.161-30.786-11.246c-41.345-0.266-42.187,39.958-42.209,41.659c-0.002,1.475-1.194,2.644-2.664,2.631    c-0.005,0.009-0.005,0.009-0.005,0.009c-1.462-0.019-2.641-1.214-2.618-2.669c-0.005-0.473,0.839-47.239,47.533-46.937    c14.768,0.09,26.394,4.438,34.589,12.907c12.705,13.124,12.383,31.271,12.364,32.024l-0.161,24.406    C214.245,86.329,213.044,87.502,211.586,87.489z"/>
	</g>
	<g>
		<path fill="#274653" d="M208.593,121.249c-10.408-0.066-18.331-6.112-22.243-9.842c-5.396-5.152-8.999-11.422-8.967-15.592    c0.008-1.46,1.199-2.648,2.669-2.64c1.459,0.021,2.646,1.207,2.638,2.669c-0.012,1.956,2.239,6.884,7.325,11.716    c3.485,3.336,10.731,8.851,19.899,8.349c1.514-0.039,2.711,1.054,2.789,2.513c0.083,1.461-1.043,2.716-2.497,2.794    C209.648,121.242,209.115,121.253,208.593,121.249z"/>
	</g>
	<g>
		<path fill="#F5AC1B" d="M203.841,131.617c-7.788-0.048-14.922-5.561-21.212-10.418c-5.008-3.862-9.737-7.518-13.48-7.54    c-2.95-0.02-7.338,2.927-11.971,6.038c-7.643,5.135-17.143,11.517-28.753,11.433c-1.462,0.003-2.646-1.198-2.638-2.654    c0.013-1.477,1.2-2.646,2.673-2.647c9.986,0.07,18.356-5.564,25.755-10.532c5.574-3.745,10.376-6.959,14.964-6.934    c5.541,0.036,10.961,4.219,16.694,8.651c5.9,4.549,12.004,9.267,18.002,9.303c1.468,0.01,2.646,1.201,2.636,2.665    C206.502,130.451,205.314,131.63,203.841,131.617z"/>
	</g>
	<g>
		<path fill="#F5AC1B" d="M196.979,141.519c-3.54-0.015-7.689-3.062-12.932-6.921c-4.939-3.635-11.08-8.152-15.149-8.178    c-3.944-0.024-10.65,3.964-16.58,7.482c-6.549,3.895-12.203,7.256-16.502,7.228c-1.467-0.008-2.641-1.207-2.642-2.665    c0.026-1.475,1.214-2.648,2.678-2.64c2.829,0.008,8.635-3.434,13.768-6.478c6.831-4.066,13.894-8.258,19.315-8.228    c5.779,0.033,12.412,4.903,18.27,9.207c3.556,2.615,7.985,5.873,9.808,5.888c1.47,0.008,2.643,1.212,2.633,2.672    C199.638,140.351,198.447,141.529,196.979,141.519z"/>
	</g>
	<g>
		<path fill="#F5AC1B" d="M185.499,148.903c-3.319-0.017-6.469-2.782-9.805-5.714c-2.518-2.186-5.647-4.923-7.608-4.998    c-0.034-0.003-0.043-0.003-0.063-0.014c-2.071-0.009-5.983,2.811-9.135,5.081c-4.044,2.916-7.543,5.432-10.686,5.409    c-1.459-0.012-2.646-1.2-2.633-2.669c0.008-1.478,1.203-2.648,2.662-2.64c1.418,0.014,4.965-2.538,7.559-4.4    c4.168-3.011,8.458-6.095,12.274-6.077c0.074-0.006,0.137,0.007,0.208,0.001c3.844,0.136,7.442,3.283,10.907,6.327    c2.113,1.846,5.013,4.383,6.348,4.392c1.459,0.014,2.637,1.2,2.638,2.673C188.153,147.723,186.963,148.914,185.499,148.903z"/>
	</g>
	<g>
		<path fill="#F5AC1B" d="M173.689,153.965c-2.318-0.01-3.568-1.865-4.406-3.101c-0.289-0.422-0.765-1.133-1.022-1.272    c-0.241,0.119-1.222,1.21-1.693,1.747c-1.082,1.196-2.307,2.573-4.148,2.553c-1.464-0.008-2.637-1.195-2.629-2.673    c0.01-1.243,0.852-2.26,2.001-2.556c0.226-0.202,0.579-0.598,0.818-0.866c1.325-1.479,3.129-3.488,5.847-3.478    c2.815,0.014,4.325,2.239,5.231,3.57c0.157,0.255,0.405,0.618,0.588,0.833c1.192,0.258,2.09,1.329,2.083,2.607    C176.35,152.791,175.162,153.978,173.689,153.965z"/>
	</g>
</g>
</svg>
